<mxfile host="app.diagrams.net" modified="2021-12-16T11:02:32.779Z" agent="5.0 (Macintosh; Intel Mac OS X 10_15_7) AppleWebKit/537.36 (KHTML, like Gecko) Chrome/96.0.4664.93 Safari/537.36" etag="NYVZlw_pQs12_BFaK96A" version="15.9.6" type="github">
  <diagram id="C1JXzy7DRrNV0ePneN-x" name="Page-1">
    <mxGraphModel dx="2066" dy="826" grid="1" gridSize="10" guides="1" tooltips="1" connect="1" arrows="1" fold="1" page="1" pageScale="1" pageWidth="850" pageHeight="1100" math="0" shadow="0">
      <root>
        <mxCell id="0" />
        <mxCell id="1" parent="0" />
        <mxCell id="wECMOpaRtuxysXnQZ8cF-36" style="edgeStyle=orthogonalEdgeStyle;rounded=0;orthogonalLoop=1;jettySize=auto;html=1;exitX=0.5;exitY=1;exitDx=0;exitDy=0;entryX=0.5;entryY=0;entryDx=0;entryDy=0;" edge="1" parent="1" source="wECMOpaRtuxysXnQZ8cF-1" target="wECMOpaRtuxysXnQZ8cF-2">
          <mxGeometry relative="1" as="geometry" />
        </mxCell>
        <mxCell id="wECMOpaRtuxysXnQZ8cF-37" style="edgeStyle=orthogonalEdgeStyle;rounded=0;orthogonalLoop=1;jettySize=auto;html=1;exitX=1;exitY=0.5;exitDx=0;exitDy=0;entryX=0.5;entryY=0;entryDx=0;entryDy=0;" edge="1" parent="1" source="wECMOpaRtuxysXnQZ8cF-1" target="wECMOpaRtuxysXnQZ8cF-34">
          <mxGeometry relative="1" as="geometry" />
        </mxCell>
        <mxCell id="wECMOpaRtuxysXnQZ8cF-1" value="Dispatch System" style="rounded=1;whiteSpace=wrap;html=1;" vertex="1" parent="1">
          <mxGeometry x="120" y="386" width="560" height="60" as="geometry" />
        </mxCell>
        <mxCell id="wECMOpaRtuxysXnQZ8cF-10" value="" style="group" vertex="1" connectable="0" parent="1">
          <mxGeometry x="120" y="470" width="560" height="250" as="geometry" />
        </mxCell>
        <mxCell id="wECMOpaRtuxysXnQZ8cF-2" value="" style="rounded=1;whiteSpace=wrap;html=1;container=1;" vertex="1" parent="wECMOpaRtuxysXnQZ8cF-10">
          <mxGeometry width="560" height="160" as="geometry" />
        </mxCell>
        <mxCell id="wECMOpaRtuxysXnQZ8cF-9" value="add_Tensor(...)" style="rounded=0;whiteSpace=wrap;html=1;" vertex="1" parent="wECMOpaRtuxysXnQZ8cF-2">
          <mxGeometry x="227.90697674418604" y="42.10526315789473" width="156.27906976744185" height="50.526315789473685" as="geometry" />
        </mxCell>
        <mxCell id="wECMOpaRtuxysXnQZ8cF-8" value="mul_Tensor(...)" style="rounded=0;whiteSpace=wrap;html=1;" vertex="1" parent="wECMOpaRtuxysXnQZ8cF-2">
          <mxGeometry x="394.0740740740741" y="42.10526315789473" width="134.8148148148148" height="50.526315789473685" as="geometry" />
        </mxCell>
        <mxCell id="wECMOpaRtuxysXnQZ8cF-7" value="" style="rounded=0;whiteSpace=wrap;html=1;" vertex="1" parent="wECMOpaRtuxysXnQZ8cF-2">
          <mxGeometry x="56.04465116279069" y="50.526315789473685" width="156.27906976744185" height="50.526315789473685" as="geometry" />
        </mxCell>
        <mxCell id="wECMOpaRtuxysXnQZ8cF-6" value="" style="rounded=0;whiteSpace=wrap;html=1;" vertex="1" parent="wECMOpaRtuxysXnQZ8cF-2">
          <mxGeometry x="43.02139534883721" y="42.10526315789473" width="156.27906976744185" height="50.526315789473685" as="geometry" />
        </mxCell>
        <mxCell id="wECMOpaRtuxysXnQZ8cF-4" value="xxx(...)" style="rounded=0;whiteSpace=wrap;html=1;" vertex="1" parent="wECMOpaRtuxysXnQZ8cF-2">
          <mxGeometry x="29.998139534883716" y="33.68421052631579" width="156.27906976744185" height="50.526315789473685" as="geometry" />
        </mxCell>
        <mxCell id="wECMOpaRtuxysXnQZ8cF-15" style="edgeStyle=orthogonalEdgeStyle;rounded=0;orthogonalLoop=1;jettySize=auto;html=1;exitX=0.5;exitY=1;exitDx=0;exitDy=0;entryX=0.5;entryY=1;entryDx=0;entryDy=0;" edge="1" parent="wECMOpaRtuxysXnQZ8cF-2" source="wECMOpaRtuxysXnQZ8cF-7" target="wECMOpaRtuxysXnQZ8cF-9">
          <mxGeometry relative="1" as="geometry" />
        </mxCell>
        <mxCell id="wECMOpaRtuxysXnQZ8cF-16" style="edgeStyle=orthogonalEdgeStyle;rounded=0;orthogonalLoop=1;jettySize=auto;html=1;exitX=0.5;exitY=1;exitDx=0;exitDy=0;entryX=0.5;entryY=1;entryDx=0;entryDy=0;" edge="1" parent="wECMOpaRtuxysXnQZ8cF-2" source="wECMOpaRtuxysXnQZ8cF-7" target="wECMOpaRtuxysXnQZ8cF-8">
          <mxGeometry relative="1" as="geometry" />
        </mxCell>
        <mxCell id="wECMOpaRtuxysXnQZ8cF-3" value="Autograd System" style="text;html=1;strokeColor=none;fillColor=none;align=center;verticalAlign=middle;whiteSpace=wrap;rounded=0;" vertex="1" parent="wECMOpaRtuxysXnQZ8cF-2">
          <mxGeometry x="-40" width="195.35" height="40" as="geometry" />
        </mxCell>
        <mxCell id="wECMOpaRtuxysXnQZ8cF-30" value="" style="group" vertex="1" connectable="0" parent="1">
          <mxGeometry x="120" y="250" width="560" height="110" as="geometry" />
        </mxCell>
        <mxCell id="wECMOpaRtuxysXnQZ8cF-18" value="" style="rounded=1;whiteSpace=wrap;html=1;" vertex="1" parent="wECMOpaRtuxysXnQZ8cF-30">
          <mxGeometry width="560" height="110" as="geometry" />
        </mxCell>
        <mxCell id="wECMOpaRtuxysXnQZ8cF-19" value="Python API System" style="text;html=1;strokeColor=none;fillColor=none;align=center;verticalAlign=middle;whiteSpace=wrap;rounded=0;" vertex="1" parent="wECMOpaRtuxysXnQZ8cF-30">
          <mxGeometry width="110" height="30" as="geometry" />
        </mxCell>
        <mxCell id="wECMOpaRtuxysXnQZ8cF-20" value="add(Tensor, ...)" style="rounded=0;whiteSpace=wrap;html=1;" vertex="1" parent="wECMOpaRtuxysXnQZ8cF-30">
          <mxGeometry x="230" y="55" width="120" height="30" as="geometry" />
        </mxCell>
        <mxCell id="wECMOpaRtuxysXnQZ8cF-21" value="mul(Tensor, ...)" style="rounded=0;whiteSpace=wrap;html=1;" vertex="1" parent="wECMOpaRtuxysXnQZ8cF-30">
          <mxGeometry x="390" y="55" width="120" height="30" as="geometry" />
        </mxCell>
        <mxCell id="wECMOpaRtuxysXnQZ8cF-28" value="" style="group" vertex="1" connectable="0" parent="wECMOpaRtuxysXnQZ8cF-30">
          <mxGeometry x="40" y="40" width="150" height="60" as="geometry" />
        </mxCell>
        <mxCell id="wECMOpaRtuxysXnQZ8cF-22" value="" style="rounded=0;whiteSpace=wrap;html=1;" vertex="1" parent="wECMOpaRtuxysXnQZ8cF-28">
          <mxGeometry width="120" height="30" as="geometry" />
        </mxCell>
        <mxCell id="wECMOpaRtuxysXnQZ8cF-25" value="" style="rounded=0;whiteSpace=wrap;html=1;" vertex="1" parent="wECMOpaRtuxysXnQZ8cF-28">
          <mxGeometry x="10" y="10" width="120" height="30" as="geometry" />
        </mxCell>
        <mxCell id="wECMOpaRtuxysXnQZ8cF-26" value="" style="rounded=0;whiteSpace=wrap;html=1;" vertex="1" parent="wECMOpaRtuxysXnQZ8cF-28">
          <mxGeometry x="20" y="20" width="120" height="30" as="geometry" />
        </mxCell>
        <mxCell id="wECMOpaRtuxysXnQZ8cF-27" value="xxx_api(...)" style="rounded=0;whiteSpace=wrap;html=1;" vertex="1" parent="wECMOpaRtuxysXnQZ8cF-28">
          <mxGeometry x="30" y="30" width="120" height="30" as="geometry" />
        </mxCell>
        <mxCell id="wECMOpaRtuxysXnQZ8cF-29" style="edgeStyle=orthogonalEdgeStyle;rounded=0;orthogonalLoop=1;jettySize=auto;html=1;exitX=0.5;exitY=1;exitDx=0;exitDy=0;" edge="1" parent="wECMOpaRtuxysXnQZ8cF-30" source="wECMOpaRtuxysXnQZ8cF-21" target="wECMOpaRtuxysXnQZ8cF-21">
          <mxGeometry relative="1" as="geometry" />
        </mxCell>
        <mxCell id="wECMOpaRtuxysXnQZ8cF-32" style="edgeStyle=orthogonalEdgeStyle;rounded=0;orthogonalLoop=1;jettySize=auto;html=1;exitX=0.5;exitY=0;exitDx=0;exitDy=0;entryX=0.5;entryY=0;entryDx=0;entryDy=0;" edge="1" parent="wECMOpaRtuxysXnQZ8cF-30" source="wECMOpaRtuxysXnQZ8cF-22" target="wECMOpaRtuxysXnQZ8cF-20">
          <mxGeometry relative="1" as="geometry" />
        </mxCell>
        <mxCell id="wECMOpaRtuxysXnQZ8cF-33" style="edgeStyle=orthogonalEdgeStyle;rounded=0;orthogonalLoop=1;jettySize=auto;html=1;exitX=0.5;exitY=0;exitDx=0;exitDy=0;entryX=0.5;entryY=0;entryDx=0;entryDy=0;" edge="1" parent="wECMOpaRtuxysXnQZ8cF-30" source="wECMOpaRtuxysXnQZ8cF-22" target="wECMOpaRtuxysXnQZ8cF-21">
          <mxGeometry relative="1" as="geometry" />
        </mxCell>
        <mxCell id="wECMOpaRtuxysXnQZ8cF-38" style="edgeStyle=orthogonalEdgeStyle;rounded=0;orthogonalLoop=1;jettySize=auto;html=1;exitX=0.25;exitY=0;exitDx=0;exitDy=0;entryX=1;entryY=0.75;entryDx=0;entryDy=0;" edge="1" parent="1" source="wECMOpaRtuxysXnQZ8cF-34" target="wECMOpaRtuxysXnQZ8cF-1">
          <mxGeometry relative="1" as="geometry" />
        </mxCell>
        <mxCell id="wECMOpaRtuxysXnQZ8cF-34" value="Other Backend" style="rounded=1;whiteSpace=wrap;html=1;" vertex="1" parent="1">
          <mxGeometry x="710" y="520" width="120" height="60" as="geometry" />
        </mxCell>
        <mxCell id="wECMOpaRtuxysXnQZ8cF-35" style="edgeStyle=orthogonalEdgeStyle;rounded=0;orthogonalLoop=1;jettySize=auto;html=1;exitX=0.5;exitY=1;exitDx=0;exitDy=0;entryX=0.5;entryY=0;entryDx=0;entryDy=0;" edge="1" parent="1" source="wECMOpaRtuxysXnQZ8cF-18" target="wECMOpaRtuxysXnQZ8cF-1">
          <mxGeometry relative="1" as="geometry" />
        </mxCell>
        <mxCell id="wECMOpaRtuxysXnQZ8cF-39" style="edgeStyle=orthogonalEdgeStyle;rounded=0;orthogonalLoop=1;jettySize=auto;html=1;exitX=0.75;exitY=0;exitDx=0;exitDy=0;entryX=0.75;entryY=1;entryDx=0;entryDy=0;" edge="1" parent="1" source="wECMOpaRtuxysXnQZ8cF-2" target="wECMOpaRtuxysXnQZ8cF-1">
          <mxGeometry relative="1" as="geometry" />
        </mxCell>
      </root>
    </mxGraphModel>
  </diagram>
</mxfile>
